<svg xmlns="http://www.w3.org/2000/svg" xmlns:svg="http://www.w3.org/2000/svg" id="svg4294" width="210mm" height="297mm" version="1.1" viewBox="0 0 744.094 1052.362"><metadata id="metadata4299"/><g id="layer1"><circle id="circle4858" cx="267.321" cy="455.398" r="65.93" style="opacity:1;fill:#fff;fill-opacity:.50196081;stroke:none;stroke-width:12.02633572;stroke-linecap:round;stroke-linejoin:round;stroke-miterlimit:4;stroke-dasharray:none;stroke-dashoffset:0;stroke-opacity:1"/><path style="fill:none;fill-opacity:1;stroke:#fff;stroke-width:10;stroke-miterlimit:4;stroke-dasharray:none;stroke-opacity:1" id="path4856" d="m 253.84839,719.10085 c 0,-23.552 -9.421,-32.973 -18.842,-51.81503 -4.7105,-4.7105 -11.111,-27.246 -63.953,-54.742 17.711,-28.293 39.137,-2.243 74.238,-2.2715 2.7114,-38.522 8.6766,-91.868 8.6766,-136.37 0,-55.331 28.26701,-55.331 29.55301,0 1.0226,44.012 -1.2856,61.586 -1.2856,78.853 0,-21.116 46.032,-8.0101 63.145,6.9147 14.996,13.079 35.753,26.954 34.574,47.729 -1.9817,34.92 -29.362,54.605 -31.746,75.49803 -0.7848,11.126 -0.15005,19.369 -0.15005,36.209"/><circle style="opacity:1;fill:none;fill-opacity:1;stroke:#00b3eb;stroke-width:10;stroke-linecap:round;stroke-linejoin:round;stroke-miterlimit:4;stroke-dasharray:none;stroke-dashoffset:0;stroke-opacity:1" id="path4854" cx="267.321" cy="455.398" r="54.821"/><circle style="opacity:1;fill:none;fill-opacity:1;stroke:#464646;stroke-width:10;stroke-linecap:round;stroke-linejoin:round;stroke-miterlimit:4;stroke-dasharray:none;stroke-dashoffset:0;stroke-opacity:1" id="path4850" cx="267.321" cy="455.398" r="18.571"/><circle style="opacity:1;fill:none;fill-opacity:1;stroke:#464646;stroke-width:10;stroke-linecap:round;stroke-linejoin:round;stroke-miterlimit:4;stroke-dasharray:none;stroke-dashoffset:0;stroke-opacity:1" id="path4852" cx="267.321" cy="455.398" r="35.714"/><path id="path3759" d="m 253.84839,719.10085 c 0,-23.552 -9.421,-32.973 -18.842,-51.81503 -4.7105,-4.7105 -11.111,-27.246 -63.953,-54.742 17.711,-28.293 39.137,-2.243 74.238,-2.2715 2.7114,-38.522 8.6766,-91.868 8.6766,-136.37 0,-55.331 28.26701,-55.331 29.55301,0 1.0226,44.012 -1.2856,61.586 -1.2856,78.853 0,-21.116 46.032,-8.0101 63.145,6.9147 14.996,13.079 35.753,26.954 34.574,47.729 -1.9817,34.92 -29.362,54.605 -31.746,75.49803 -0.7848,11.126 -0.15005,19.369 -0.15005,36.209" style="fill:#000;fill-opacity:.24257426;stroke:none;stroke-width:10;stroke-miterlimit:4;stroke-dasharray:none;stroke-opacity:0"/></g></svg>