<svg xmlns="http://www.w3.org/2000/svg" xmlns:svg="http://www.w3.org/2000/svg" id="svg2" width="210mm" height="297mm" version="1.1" viewBox="0 0 744.094 1052.362"><defs id="defs4"><marker id="marker13131" orient="auto" refX="0" refY="0" style="overflow:visible"><path id="path13133" d="M 8.7185878,4.0337352 L -2.2072895,0.016013256 L 8.7185884,-4.0017078 C 6.9730900,-1.6296469 6.9831476,1.6157441 8.7185878,4.0337352 z" transform="scale(1.1) rotate(180) translate(1,0)" style="fill-rule:evenodd;stroke-width:.625;stroke-linejoin:round;stroke:#bb2c00;stroke-opacity:1;fill:#bb2c00;fill-opacity:1"/></marker><marker style="overflow:visible" id="marker12891" orient="auto" refX="0" refY="0"><path style="fill-rule:evenodd;stroke-width:.625;stroke-linejoin:round;stroke:#bb2c00;stroke-opacity:1;fill:#bb2c00;fill-opacity:1" id="path12893" d="M 8.7185878,4.0337352 L -2.2072895,0.016013256 L 8.7185884,-4.0017078 C 6.9730900,-1.6296469 6.9831476,1.6157441 8.7185878,4.0337352 z" transform="scale(1.1) rotate(180) translate(1,0)"/></marker><marker id="marker11490" orient="auto" refX="0" refY="0" style="overflow:visible"><path id="path11492" d="M 8.7185878,4.0337352 L -2.2072895,0.016013256 L 8.7185884,-4.0017078 C 6.9730900,-1.6296469 6.9831476,1.6157441 8.7185878,4.0337352 z" transform="scale(1.1) rotate(180) translate(1,0)" style="fill-rule:evenodd;stroke-width:.625;stroke-linejoin:round;stroke:#bb2c00;stroke-opacity:1;fill:#bb2c00;fill-opacity:1"/></marker><marker id="marker11346" orient="auto" refX="0" refY="0" style="overflow:visible"><path id="path11348" d="M 8.7185878,4.0337352 L -2.2072895,0.016013256 L 8.7185884,-4.0017078 C 6.9730900,-1.6296469 6.9831476,1.6157441 8.7185878,4.0337352 z" transform="scale(1.1) rotate(180) translate(1,0)" style="fill-rule:evenodd;stroke-width:.625;stroke-linejoin:round;stroke:#bb2c00;stroke-opacity:1;fill:none;fill-opacity:1"/></marker><marker id="marker11176" orient="auto" refX="0" refY="0" style="overflow:visible"><path id="path11178" d="M 8.7185878,4.0337352 L -2.2072895,0.016013256 L 8.7185884,-4.0017078 C 6.9730900,-1.6296469 6.9831476,1.6157441 8.7185878,4.0337352 z" transform="scale(1.1) rotate(180) translate(1,0)" style="fill-rule:evenodd;stroke-width:.625;stroke-linejoin:round;stroke:#bb2c00;stroke-opacity:1;fill:#bb2c00;fill-opacity:1"/></marker><marker style="overflow:visible" id="marker10689" orient="auto" refX="0" refY="0"><path style="fill-rule:evenodd;stroke-width:.625;stroke-linejoin:round;stroke:#000;stroke-opacity:1;fill:#000;fill-opacity:1" id="path10691" d="M 8.7185878,4.0337352 L -2.2072895,0.016013256 L 8.7185884,-4.0017078 C 6.9730900,-1.6296469 6.9831476,1.6157441 8.7185878,4.0337352 z" transform="scale(1.1) rotate(180) translate(1,0)"/></marker><marker id="marker10509" orient="auto" refX="0" refY="0" style="overflow:visible"><path id="path10511" d="M 8.7185878,4.0337352 L -2.2072895,0.016013256 L 8.7185884,-4.0017078 C 6.9730900,-1.6296469 6.9831476,1.6157441 8.7185878,4.0337352 z" transform="scale(1.1) rotate(180) translate(1,0)" style="fill-rule:evenodd;stroke-width:.625;stroke-linejoin:round;stroke:#000;stroke-opacity:1;fill:#000;fill-opacity:1"/></marker><marker id="marker8364" orient="auto" refX="0" refY="0" style="overflow:visible"><path id="path8366" d="M 8.7185878,4.0337352 L -2.2072895,0.016013256 L 8.7185884,-4.0017078 C 6.9730900,-1.6296469 6.9831476,1.6157441 8.7185878,4.0337352 z" transform="scale(1.1) rotate(180) translate(1,0)" style="fill-rule:evenodd;stroke-width:.625;stroke-linejoin:round;stroke:#000;stroke-opacity:1;fill:#000;fill-opacity:1"/></marker><marker style="overflow:visible" id="marker7944" orient="auto" refX="0" refY="0"><path style="fill-rule:evenodd;stroke-width:.625;stroke-linejoin:round;stroke:#740081;stroke-opacity:1;fill:#740081;fill-opacity:1" id="path7946" d="M 8.7185878,4.0337352 L -2.2072895,0.016013256 L 8.7185884,-4.0017078 C 6.9730900,-1.6296469 6.9831476,1.6157441 8.7185878,4.0337352 z" transform="scale(1.1) rotate(180) translate(1,0)"/></marker><marker style="overflow:visible" id="marker6720" orient="auto" refX="0" refY="0"><path style="fill-rule:evenodd;stroke-width:.625;stroke-linejoin:round;stroke:#000;stroke-opacity:1;fill:#000;fill-opacity:1" id="path6722" d="M 8.7185878,4.0337352 L -2.2072895,0.016013256 L 8.7185884,-4.0017078 C 6.9730900,-1.6296469 6.9831476,1.6157441 8.7185878,4.0337352 z" transform="scale(1.1) rotate(180) translate(1,0)"/></marker><marker id="marker5973" orient="auto" refX="0" refY="0" style="overflow:visible"><path id="path5975" d="M 8.7185878,4.0337352 L -2.2072895,0.016013256 L 8.7185884,-4.0017078 C 6.9730900,-1.6296469 6.9831476,1.6157441 8.7185878,4.0337352 z" transform="scale(1.1) rotate(180) translate(1,0)" style="fill-rule:evenodd;stroke-width:.625;stroke-linejoin:round;stroke:none;stroke-opacity:1;fill:none;fill-opacity:1"/></marker><marker id="Arrow2Lend" orient="auto" refX="0" refY="0" style="overflow:visible"><path id="path4173" d="M 8.7185878,4.0337352 L -2.2072895,0.016013256 L 8.7185884,-4.0017078 C 6.9730900,-1.6296469 6.9831476,1.6157441 8.7185878,4.0337352 z" transform="scale(1.1) rotate(180) translate(1,0)" style="fill-rule:evenodd;stroke-width:.625;stroke-linejoin:round;stroke:#000;stroke-opacity:1;fill:#000;fill-opacity:1"/></marker><marker id="Arrow1Lend" orient="auto" refX="0" refY="0" style="overflow:visible"><path id="path4155" d="M 0.0,0.0 L 5.0,-5.0 L -12.5,0.0 L 5.0,5.0 L 0.0,0.0 z" transform="scale(0.8) rotate(180) translate(12.5,0)" style="fill-rule:evenodd;stroke:#000;stroke-width:1pt;stroke-opacity:1;fill:#000;fill-opacity:1"/></marker></defs><metadata id="metadata7"/><g id="layer1"><rect style="opacity:.54199997;fill:#00b2a6;fill-opacity:1;stroke:#000;stroke-width:1.02762711;stroke-miterlimit:4;stroke-dasharray:none;stroke-opacity:1" id="rect3336" width="116.346" height="50.717" x="1426.265" y="1185.816" transform="matrix(1,0,-0.78597982,0.61825215,0,0)"/><rect id="rect4138" width="235.328" height="102.584" x="1405.931" y="1295.812" transform="matrix(1,0,-0.78597982,0.61825215,0,0)" style="opacity:.54199997;fill:#00b2a6;fill-opacity:1;stroke:#000;stroke-width:2.07853222;stroke-miterlimit:4;stroke-dasharray:none;stroke-opacity:1"/><rect style="opacity:.54199997;fill:#00b2a6;fill-opacity:1;stroke:#000;stroke-width:1.68915534;stroke-miterlimit:4;stroke-dasharray:none;stroke-opacity:1" id="rect4144" width="191.243" height="83.366" x="1366.332" y="1226.994" transform="matrix(1,0,-0.78597982,0.61825215,0,0)"/><text style="font-style:normal;font-variant:normal;font-weight:400;font-stretch:normal;font-size:30px;line-height:125%;font-family:Sans;-inkscape-font-specification:'Sans, Normal';text-align:center;letter-spacing:0;word-spacing:0;writing-mode:lr-tb;text-anchor:middle;fill:#000;fill-opacity:1;stroke:none;stroke-width:1px;stroke-linecap:butt;stroke-linejoin:miter;stroke-opacity:1" id="text5314" x="495.962" y="483.757" xml:space="preserve"><tspan id="tspan5316" x="495.962" y="483.757" style="font-style:normal;font-variant:normal;font-weight:400;font-stretch:normal;font-size:30px;line-height:125%;font-family:Sans;-inkscape-font-specification:'Sans, Normal';text-align:center;writing-mode:lr-tb;text-anchor:middle">QTouchEvent</tspan><tspan style="font-style:normal;font-variant:normal;font-weight:400;font-stretch:normal;font-size:30px;line-height:125%;font-family:Sans;-inkscape-font-specification:'Sans, Normal';text-align:center;writing-mode:lr-tb;text-anchor:middle" id="tspan13410" x="495.962" y="521.257">from OS</tspan></text><g id="g11149" transform="translate(22.857143,0)"><rect id="rect4622" width="305.23" height="133.055" x="1362.734" y="1373.707" transform="matrix(1,0,-0.78597982,0.61825215,0,0)" style="opacity:.54199997;fill:#c6b2a6;fill-opacity:1;stroke:#000;stroke-width:2.69593906;stroke-miterlimit:4;stroke-dasharray:none;stroke-opacity:1"/><text id="text5318" x="1766.524" y="922.052" transform="matrix(1,0,-1.6852697,1,0,0)" xml:space="preserve" style="font-style:normal;font-variant:normal;font-weight:700;font-stretch:normal;font-size:22.5px;line-height:125%;font-family:Sans;-inkscape-font-specification:'Sans Bold';letter-spacing:0;word-spacing:0;fill:#000;fill-opacity:1;stroke:none;stroke-width:1px;stroke-linecap:butt;stroke-linejoin:miter;stroke-opacity:1"><tspan id="tspan5322" x="1766.524" y="922.052">QQuickWindow</tspan></text></g><path style="fill:none;fill-rule:evenodd;stroke:#000;stroke-width:1.5;stroke-linecap:butt;stroke-linejoin:miter;stroke-miterlimit:4;stroke-dasharray:1.5,1.5;stroke-opacity:1;stroke-dashoffset:0" id="path5326" d="M 287.89348,887.70734 C 128.50294,710.72023 505.81939,464.16717 510.12703,600.82401"/><path id="path5971" d="M 242.43661,807.90528 C 208.30499,637.98924 504.80923,477.29915 512.14734,584.66157" style="fill:none;fill-rule:evenodd;stroke:none;stroke-width:1.5;stroke-linecap:butt;stroke-linejoin:miter;stroke-miterlimit:4;stroke-dasharray:none;stroke-opacity:1;marker-end:url(#marker5973)"/><path id="path6718" d="m 510.12704,597.79356 0,137.1238" style="fill:none;fill-rule:evenodd;stroke:#000;stroke-width:1.5633955;stroke-linecap:butt;stroke-linejoin:miter;stroke-miterlimit:4;stroke-dasharray:none;stroke-opacity:1;marker-end:url(#marker6720)"/><path style="fill:none;fill-rule:evenodd;stroke:#000;stroke-width:1.5;stroke-linecap:butt;stroke-linejoin:miter;stroke-miterlimit:4;stroke-dasharray:none;stroke-opacity:1;marker-end:url(#marker10509)" id="path10507" d="m 508.7282,740.22507 0,39.1437"/><path id="path10687" d="m 508.7282,784.51079 0,39.1437" style="fill:none;fill-rule:evenodd;stroke:#000;stroke-width:1.5;stroke-linecap:butt;stroke-linejoin:miter;stroke-miterlimit:4;stroke-dasharray:none;stroke-opacity:1;marker-end:url(#marker10689)"/><path style="fill:none;fill-rule:evenodd;stroke:#000;stroke-width:1.57099521;stroke-linecap:butt;stroke-linejoin:miter;stroke-miterlimit:4;stroke-dasharray:none;stroke-opacity:1;marker-end:url(#Arrow2Lend)" id="path4146" d="m 496.99505,527.08288 0,351.72829"/><text style="font-style:normal;font-variant:normal;font-weight:400;font-stretch:normal;font-size:20.10250092px;line-height:125%;font-family:Sans;-inkscape-font-specification:'Sans, Normal';text-align:start;letter-spacing:0;word-spacing:0;writing-mode:lr-tb;text-anchor:start;fill:#bb2c00;fill-opacity:1;stroke:none;stroke-width:1px;stroke-linecap:butt;stroke-linejoin:miter;stroke-opacity:1" id="text11166" x="515.046" y="670.28" xml:space="preserve"><tspan id="tspan11168" x="515.046" y="670.28" style="font-style:normal;font-variant:normal;font-weight:400;font-stretch:normal;font-size:20.10250092px;line-height:125%;font-family:Sans;-inkscape-font-specification:'Sans, Normal';text-align:start;writing-mode:lr-tb;text-anchor:start;fill:#bb2c00;fill-opacity:1;stroke:none;stroke-opacity:1">synth</tspan><tspan style="font-style:normal;font-variant:normal;font-weight:400;font-stretch:normal;font-size:20.10250092px;line-height:125%;font-family:Sans;-inkscape-font-specification:'Sans, Normal';text-align:start;writing-mode:lr-tb;text-anchor:start;fill:#bb2c00;fill-opacity:1;stroke:none;stroke-opacity:1" id="tspan13412" x="515.046" y="695.408">QMouseEvent</tspan></text><path style="fill:none;fill-rule:evenodd;stroke:#bb2c00;stroke-width:1.5;stroke-linecap:butt;stroke-linejoin:miter;stroke-miterlimit:4;stroke-dasharray:none;stroke-opacity:1;marker-end:url(#marker11176)" id="path11170" d="m 515.43206,700.88554 19.57185,33.89944"/><path id="path12889" d="m 515.43206,742.31411 19.57185,33.89944" style="fill:none;fill-rule:evenodd;stroke:#bb2c00;stroke-width:1.5;stroke-linecap:butt;stroke-linejoin:miter;stroke-miterlimit:4;stroke-dasharray:none;stroke-opacity:1;marker-end:url(#marker12891)"/><text style="font-style:normal;font-weight:400;font-size:34.39263535px;line-height:125%;font-family:Sans;letter-spacing:0;word-spacing:0;fill:#fcff53;fill-opacity:1;stroke:none;stroke-width:1px;stroke-linecap:butt;stroke-linejoin:miter;stroke-opacity:1" id="text13394" x="1488.671" y="965.696" transform="matrix(1.1630397,0,-1.2680264,0.85981588,0,0)" xml:space="preserve"><tspan id="tspan13396" x="1488.671" y="965.696">✩</tspan></text><path style="fill:none;fill-rule:evenodd;stroke:#bb2c00;stroke-width:1.5;stroke-linecap:butt;stroke-linejoin:miter;stroke-miterlimit:4;stroke-dasharray:none;stroke-opacity:1;marker-end:url(#marker13131)" id="path13129" d="m 515.43206,786.59982 19.57185,33.89944"/></g></svg>