<svg xmlns="http://www.w3.org/2000/svg" xmlns:ns1="http://sozi.baierouge.fr" xmlns:svg="http://www.w3.org/2000/svg" xmlns:xlink="http://www.w3.org/1999/xlink" id="svg2" version="1.0" viewBox="0 0 521.24 529.32"><title id="title162">trash</title><defs id="defs4"><linearGradient id="linearGradient3390"><stop id="stop3392" offset="0" style="stop-color:#fff"/><stop id="stop3394" offset="1" style="stop-color:#fff;stop-opacity:0"/></linearGradient><linearGradient id="linearGradient3274"><stop id="stop3276" offset="0" style="stop-color:#000"/><stop id="stop3278" offset="1" style="stop-color:#000;stop-opacity:0"/></linearGradient><linearGradient id="linearGradient2898"><stop id="stop2900" offset="0" style="stop-color:#eceee9"/><stop id="stop2902" offset="1" style="stop-color:#c6b6b6;stop-opacity:0"/></linearGradient><radialGradient id="radialGradient2904" cx="204.14" cy="464.34" r="171.43" fx="199.92" fy="598.39" gradientTransform="matrix(.92613 -4.6209e-8 6.1493e-8 1.9887 45.685 -460.64)" gradientUnits="userSpaceOnUse" xlink:href="#linearGradient2898"/><radialGradient id="radialGradient2916" cx="398.49" cy="499.08" r="171.43" gradientTransform="matrix(1.1552 0 0 .5 -61.865 180.47)" gradientUnits="userSpaceOnUse" spreadMethod="reflect" xlink:href="#linearGradient2898"/><linearGradient id="linearGradient2944" x1="368.31" x2="502.32" y1="546.77" y2="546.77" gradientTransform="translate(119.2 32.325)" gradientUnits="userSpaceOnUse" spreadMethod="reflect" xlink:href="#linearGradient2898"/><radialGradient id="radialGradient2970" cx="264.66" cy="564.46" r="24.244" fx="252.54" fy="545.36" gradientTransform="matrix(1 0 0 4.125 0 -1763.9)" gradientUnits="userSpaceOnUse" xlink:href="#linearGradient2898"/><radialGradient id="radialGradient2972" cx="264.66" cy="564.46" r="24.244" fx="277.08" fy="552.42" gradientTransform="matrix(1 0 0 4.125 0 -1763.9)" gradientUnits="userSpaceOnUse" xlink:href="#linearGradient3274"/><linearGradient id="linearGradient3127" x1="396.95" x2="365.06" y1="442.71" y2="360.93" gradientUnits="userSpaceOnUse" xlink:href="#linearGradient3390"/><linearGradient id="linearGradient3135" x1="449.63" x2="349.37" y1="486.28" y2="314.89" gradientUnits="userSpaceOnUse" xlink:href="#linearGradient3390"/><linearGradient id="linearGradient3143" x1="356.76" x2="368.41" y1="756.88" y2="205.34" gradientTransform="translate(119.2 32.325)" gradientUnits="userSpaceOnUse"><stop id="stop3139" offset="0" style="stop-color:#000"/><stop id="stop3141" offset="1" style="stop-color:#000;stop-opacity:0"/></linearGradient><radialGradient id="radialGradient3234" cx="285.71" cy="532.36" r="171.43" fx="292.74" fy="648.24" gradientTransform="matrix(.91304 2.7805e-8 0 .81625 24.844 12.107)" gradientUnits="userSpaceOnUse"><stop id="stop3230" offset="0" style="stop-color:#000"/><stop id="stop3232" offset="1" style="stop-color:#000;stop-opacity:0"/></radialGradient><linearGradient id="linearGradient3246" x1="342.86" x2="411.43" y1="551.69" y2="551.69" gradientTransform="translate(119.2 32.325)" gradientUnits="userSpaceOnUse" xlink:href="#linearGradient3390"/><radialGradient id="radialGradient3256" cx="284.86" cy="667.49" r="173.75" fx="343.45" fy="706.1" gradientTransform="matrix(1 0 0 .36628 0 423)" gradientUnits="userSpaceOnUse"><stop id="stop3252" offset="0" style="stop-color:#000"/><stop id="stop3258" offset=".728" style="stop-color:#000;stop-opacity:.81081"/><stop id="stop3254" offset="1" style="stop-color:#000;stop-opacity:0"/></radialGradient><linearGradient id="linearGradient3272" x1="312.57" x2="500.3" y1="728.26" y2="590.71" gradientUnits="userSpaceOnUse" xlink:href="#linearGradient3274"/><radialGradient id="radialGradient3286" cx="400.02" cy="588.42" r="107.08" gradientTransform="matrix(.17174 .70808 -1.4749 .21806 1268.1 213.42)" gradientUnits="userSpaceOnUse" xlink:href="#linearGradient3390"/><linearGradient id="linearGradient3296" x1="738.84" x2="300.95" y1="935.02" y2="534.76" gradientUnits="userSpaceOnUse" xlink:href="#linearGradient3274"/><linearGradient id="linearGradient3300" x1="393.43" x2="476.03" y1="410.53" y2="498.67" gradientUnits="userSpaceOnUse" xlink:href="#linearGradient3390"/><radialGradient id="radialGradient3304" cx="388.67" cy="655.16" r="107.08" fx="394.22" fy="754.89" gradientTransform="matrix(1 0 0 1.1604 0 -101.87)" gradientUnits="userSpaceOnUse"><stop id="stop3310" offset="0" style="stop-color:#000;stop-opacity:.28729"/><stop id="stop3312" offset="1" style="stop-color:#000;stop-opacity:0"/></radialGradient><linearGradient id="linearGradient3322" x1="519.14" x2="452.31" y1="639.38" y2="645.06" gradientUnits="userSpaceOnUse" xlink:href="#linearGradient3390"/><radialGradient id="radialGradient3340" cx="197" cy="623.3" r="69.277" gradientTransform="matrix(.97981 .19994 -.46661 2.2866 419.63 -785.86)" gradientUnits="userSpaceOnUse"><stop id="stop3336" offset="0" style="stop-color:#000"/><stop id="stop3338" offset="1" style="stop-color:#000;stop-opacity:0"/></radialGradient><filter id="filter3382" color-interpolation-filters="sRGB"><feGaussianBlur id="feGaussianBlur3384" stdDeviation="2.156"/></filter><radialGradient id="radialGradient3396" cx="401.51" cy="662.97" r="112.08" gradientTransform="matrix(.82178 -.42006 .79423 .79304 -439.66 275.58)" gradientUnits="userSpaceOnUse" xlink:href="#linearGradient3390"/><linearGradient id="linearGradient3404" x1="415.92" x2="508.94" y1="170.46" y2="585.6" gradientUnits="userSpaceOnUse"><stop id="stop3400" offset="0" style="stop-color:#000"/><stop id="stop3402" offset="1" style="stop-color:#000;stop-opacity:0"/></linearGradient><linearGradient id="linearGradient3416" x1="353.55" x2="78.792" y1="625.84" y2="532.91" gradientTransform="translate(119.2 32.325)" gradientUnits="userSpaceOnUse" xlink:href="#linearGradient3390"/><radialGradient id="radialGradient3444" cx="210.11" cy="721.03" r="54.548" gradientTransform="matrix(1 0 0 .25926 0 534.1)" gradientUnits="userSpaceOnUse"><stop id="stop3440" offset="0" style="stop-color:#000"/><stop id="stop3442" offset="1" style="stop-color:#000;stop-opacity:0"/></radialGradient><radialGradient id="radialGradient3456" cx="154.01" cy="570.2" r="18.408" gradientTransform="matrix(.44223 -1.5188 3.8425 1.1188 -2050.2 199.92)" gradientUnits="userSpaceOnUse" xlink:href="#linearGradient3390"/><radialGradient id="radialGradient3466" cx="192.25" cy="571.41" r="18.408" gradientTransform="matrix(.18187 -1.215 3.9579 .59246 -2066.2 442.31)" gradientUnits="userSpaceOnUse" xlink:href="#linearGradient3390"/><linearGradient id="linearGradient3476" x1="159.61" x2="158.57" y1="600.22" y2="590.93" gradientTransform="matrix(1.1183 0 0 1.1183 24.142 -48.056)" gradientUnits="userSpaceOnUse"><stop id="stop3472" offset="0" style="stop-color:#000"/><stop id="stop3474" offset="1" style="stop-color:#000;stop-opacity:0"/></linearGradient><linearGradient id="linearGradient3480" x1="168.74" x2="173.02" y1="618.08" y2="604.51" gradientTransform="matrix(1.1183 0 0 1.1183 24.142 -48.056)" gradientUnits="userSpaceOnUse"><stop id="stop3484" offset="0" style="stop-color:#fff;stop-opacity:.75138"/><stop id="stop3486" offset="1" style="stop-color:#fff;stop-opacity:0"/></linearGradient><filter id="filter3534" color-interpolation-filters="sRGB"><feGaussianBlur id="feGaussianBlur3536" stdDeviation="1.37"/></filter></defs><g id="layer1" transform="translate(-105.06 -268.48)"><rect id="rect3538" width="521.24" height="529.32" x="105.06" y="268.48" style="opacity:.75138;fill:none"/><path id="path3248" d="m458.61 667.49c0 35.147-77.789 63.64-173.75 63.64-95.957 0-173.75-28.492-173.75-63.64 0-35.147 77.789-63.64 173.75-63.64 95.957 0 173.75 28.492 173.75 63.64z" transform="matrix(.96825 0 0 1.0952 112.08 -53.469)" style="opacity:.85405;fill-rule:evenodd;fill:url(#radialGradient3256)"/><path id="path2314" d="m587.06 398.98-341.15 1.4062c12.932 29.809 43.885 269.8 44.133 270.09-0.002 0.1258 0 0.249 0 0.375 0 30.926 56.592 56.031 126.31 56.031 68.394 0 124.12-24.137 126.22-54.25 0.5855-0.25227 0.90625-0.51736 0.90625-0.8125 0-8.5715 43.576-272.84 43.576-272.84z" style="stroke-linejoin:round;fill-rule:evenodd;stroke:url(#linearGradient3143);stroke-width:6.9396;fill:#fff"/><path id="path2918" d="m589.2 398.98-346.15 1.4062c12.932 29.809 46.742 269.8 46.99 270.09-0.002 0.1258 0 0.249 0 0.375 0 30.926 56.592 56.031 126.31 56.031 68.394 0 124.12-24.137 126.22-54.25 0.5855-0.25227 0.90625-0.51736 0.90625-0.8125 0-8.5715 45.719-272.84 45.719-272.84z" style="fill-rule:evenodd;fill:gray"/><path id="path2936" d="m589.2 398.98-346.15 1.4062c12.932 29.809 46.742 269.8 46.99 270.09-0.002 0.1258 0 0.249 0 0.375 0 30.926 56.592 56.031 126.31 56.031 68.394 0 124.12-24.137 126.22-54.25 0.5855-0.25227 0.90625-0.51736 0.90625-0.8125 0-8.5715 45.719-272.84 45.719-272.84z" style="fill-rule:evenodd;fill:url(#linearGradient2944)"/><path id="path3332" d="m246.48 755.38s42.426 4.0406 76.772-4.0406c34.345-8.0812 46.467-28.284 46.467-28.284s16.162-191.93-24.244-218.19c-40.406-26.264-64.65 12.122-80.812 44.447s-30.305 80.812-30.305 94.954 6.0609 44.447 6.0609 54.548c0 10.102 2.0203 54.548 6.0609 56.569z" style="filter:url(#filter3382);fill-rule:evenodd;fill:url(#radialGradient3340)"/><path id="path2312" d="m457.14 360.93c0 47.339-76.751 85.714-171.43 85.714-94.677 0-171.43-38.376-171.43-85.714 0-47.339 76.751-85.714 171.43-85.714 94.677 0 171.43 38.376 171.43 85.714z" transform="matrix(1.0032 0 0 .78974 129.71 109.64)" style="stroke-linejoin:round;fill-rule:evenodd;stroke:url(#linearGradient3135);stroke-width:10;fill:#fff"/><path id="path2906" d="m457.14 360.93c0 47.339-76.751 85.714-171.43 85.714-94.677 0-171.43-38.376-171.43-85.714 0-47.339 76.751-85.714 171.43-85.714 94.677 0 171.43 38.376 171.43 85.714z" transform="matrix(1.0032 0 0 .78974 129.71 109.64)" style="fill-rule:evenodd;fill:#4d4d4d"/><path id="path2908" d="m457.14 360.93c0 47.339-76.751 85.714-171.43 85.714-94.677 0-171.43-38.376-171.43-85.714 0-47.339 76.751-85.714 171.43-85.714 94.677 0 171.43 38.376 171.43 85.714z" transform="matrix(1.0032 0 0 .78974 129.71 109.64)" style="fill-rule:evenodd;fill:url(#radialGradient2916)"/><path id="path2310" d="m457.14 360.93c0 47.339-76.751 85.714-171.43 85.714-94.677 0-171.43-38.376-171.43-85.714 0-47.339 76.751-85.714 171.43-85.714 94.677 0 171.43 38.376 171.43 85.714z" transform="matrix(.95725 0 0 .75357 142.84 101.02)" style="stroke-linejoin:round;fill-rule:evenodd;stroke:url(#linearGradient3127);stroke-width:10;fill:#4d4d4d"/><path id="path2319" d="m457.14 360.93c0 47.339-76.751 85.714-171.43 85.714-94.677 0-171.43-38.376-171.43-85.714 0-47.339 76.751-85.714 171.43-85.714 94.677 0 171.43 38.376 171.43 85.714z" transform="matrix(.95725 0 0 .75357 142.84 101.02)" style="fill-rule:evenodd;fill:url(#radialGradient2904)"/><path id="path3238" d="m490.63 458.97s8.5714 111.43 2.8571 148.57c-5.7143 37.143-31.429 40-31.429 80s14.286 28.571 14.286 28.571-2.8572-2.8571 25.714-45.714 28.571-42.857 28.571-62.857-8.5714-105.71-8.5714-120v-37.143l-31.429 8.5714z" style="fill-rule:evenodd;fill:url(#linearGradient3246)"/><g id="g3200" transform="matrix(.97187 -.0076636 .0076636 .97187 124.66 46.272)"><g id="g2966" transform="matrix(.74371 -.016858 .022662 .99974 52.199 .41176)"><path id="path2946" d="m288.9 564.46c0 55.231-10.854 100.01-24.244 100.01-13.389 0-24.244-44.774-24.244-100.01 0-55.231 10.854-100.01 24.244-100.01 13.389 0 24.244 44.774 24.244 100.01z" transform="matrix(1.1389 0 0 1.1389 -31.371 -78.144)" style="fill-rule:evenodd;fill:url(#radialGradient2970)"/><path id="path2956" d="m288.9 564.46c0 55.231-10.854 100.01-24.244 100.01-13.389 0-24.244-44.774-24.244-100.01 0-55.231 10.854-100.01 24.244-100.01 13.389 0 24.244 44.774 24.244 100.01z" transform="matrix(1.1389 0 0 1.1389 -31.371 -78.144)" style="fill-rule:evenodd;fill:url(#radialGradient2972)"/></g><g id="g2974" transform="matrix(.37644 .034796 -.092041 .99576 380.98 -41.345)" style="opacity:.65405"><path id="path2976" d="m288.9 564.46c0 55.231-10.854 100.01-24.244 100.01-13.389 0-24.244-44.774-24.244-100.01 0-55.231 10.854-100.01 24.244-100.01 13.389 0 24.244 44.774 24.244 100.01z" transform="matrix(1.1389 0 0 1.1389 -31.371 -78.144)" style="fill-rule:evenodd;fill:url(#radialGradient2970)"/><path id="path2978" d="m288.9 564.46c0 55.231-10.854 100.01-24.244 100.01-13.389 0-24.244-44.774-24.244-100.01 0-55.231 10.854-100.01 24.244-100.01 13.389 0 24.244 44.774 24.244 100.01z" transform="matrix(1.1389 0 0 1.1389 -31.371 -78.144)" style="fill-rule:evenodd;fill:url(#radialGradient2972)"/></g><g id="g2984" transform="matrix(.52426 .011544 -.022014 .99976 236.87 -5.0008)" style="opacity:.57297"><path id="path2986" d="m288.9 564.46c0 55.231-10.854 100.01-24.244 100.01-13.389 0-24.244-44.774-24.244-100.01 0-55.231 10.854-100.01 24.244-100.01 13.389 0 24.244 44.774 24.244 100.01z" transform="matrix(1.1389 0 0 1.1389 -31.371 -78.144)" style="fill-rule:evenodd;fill:url(#radialGradient2970)"/><path id="path2988" d="m288.9 564.46c0 55.231-10.854 100.01-24.244 100.01-13.389 0-24.244-44.774-24.244-100.01 0-55.231 10.854-100.01 24.244-100.01 13.389 0 24.244 44.774 24.244 100.01z" transform="matrix(1.1389 0 0 1.1389 -31.371 -78.144)" style="fill-rule:evenodd;fill:url(#radialGradient2972)"/></g><g id="g2994" transform="matrix(.59718 -.021212 .035498 .99937 138.23 4.0639)" style="opacity:.80541"><path id="path2996" d="m288.9 564.46c0 55.231-10.854 100.01-24.244 100.01-13.389 0-24.244-44.774-24.244-100.01 0-55.231 10.854-100.01 24.244-100.01 13.389 0 24.244 44.774 24.244 100.01z" transform="matrix(1.1389 0 0 1.1389 -31.371 -78.144)" style="fill-rule:evenodd;fill:url(#radialGradient2970)"/><path id="path2998" d="m288.9 564.46c0 55.231-10.854 100.01-24.244 100.01-13.389 0-24.244-44.774-24.244-100.01 0-55.231 10.854-100.01 24.244-100.01 13.389 0 24.244 44.774 24.244 100.01z" transform="matrix(1.1389 0 0 1.1389 -31.371 -78.144)" style="fill-rule:evenodd;fill:url(#radialGradient2972)"/></g><g id="g3004" transform="matrix(.45086 0.0181 -.040113 .99920 303.28 -22.616)" style="opacity:.43243"><path id="path3006" d="m288.9 564.46c0 55.231-10.854 100.01-24.244 100.01-13.389 0-24.244-44.774-24.244-100.01 0-55.231 10.854-100.01 24.244-100.01 13.389 0 24.244 44.774 24.244 100.01z" transform="matrix(1.1389 0 0 1.1389 -31.371 -78.144)" style="fill-rule:evenodd;fill:url(#radialGradient2970)"/><path id="path3008" d="m288.9 564.46c0 55.231-10.854 100.01-24.244 100.01-13.389 0-24.244-44.774-24.244-100.01 0-55.231 10.854-100.01 24.244-100.01 13.389 0 24.244 44.774 24.244 100.01z" transform="matrix(1.1389 0 0 1.1389 -31.371 -78.144)" style="fill-rule:evenodd;fill:url(#radialGradient2972)"/></g><g id="g3188" transform="matrix(.80445 0 0 1 31.514 4.2857)"><path id="path3056" d="m288.9 564.46c0 55.231-10.854 100.01-24.244 100.01-13.389 0-24.244-44.774-24.244-100.01 0-55.231 10.854-100.01 24.244-100.01 13.389 0 24.244 44.774 24.244 100.01z" transform="matrix(.42342 -.078085 .20655 1.12 -69.993 -86.387)" style="fill-rule:evenodd;fill:url(#radialGradient2970)"/><path id="path3058" d="m288.9 564.46c0 55.231-10.854 100.01-24.244 100.01-13.389 0-24.244-44.774-24.244-100.01 0-55.231 10.854-100.01 24.244-100.01 13.389 0 24.244 44.774 24.244 100.01z" transform="matrix(.42342 -.078085 .20655 1.12 -64.993 -82.101)" style="fill-rule:evenodd;fill:url(#radialGradient2972)"/></g><g id="g3066" transform="matrix(0.595 -.055264 .092483 .99571 6.7072 8.0795)" style="opacity:.80541"><path id="path3068" d="m288.9 564.46c0 55.231-10.854 100.01-24.244 100.01-13.389 0-24.244-44.774-24.244-100.01 0-55.231 10.854-100.01 24.244-100.01 13.389 0 24.244 44.774 24.244 100.01z" transform="matrix(1.1389 0 0 1.1389 -31.371 -78.144)" style="fill-rule:evenodd;fill:url(#radialGradient2970)"/><path id="path3070" d="m288.9 564.46c0 55.231-10.854 100.01-24.244 100.01-13.389 0-24.244-44.774-24.244-100.01 0-55.231 10.854-100.01 24.244-100.01 13.389 0 24.244 44.774 24.244 100.01z" transform="matrix(1.1389 0 0 1.1389 -31.371 -78.144)" style="fill-rule:evenodd;fill:url(#radialGradient2972)"/></g><g id="g3072" transform="matrix(.44663 -.064213 .14231 .98982 -15.116 2.3949)" style="opacity:.43243"><path id="path3074" d="m288.9 564.46c0 55.231-10.854 100.01-24.244 100.01-13.389 0-24.244-44.774-24.244-100.01 0-55.231 10.854-100.01 24.244-100.01 13.389 0 24.244 44.774 24.244 100.01z" transform="matrix(1.1389 0 0 1.1389 -31.371 -78.144)" style="fill-rule:evenodd;fill:url(#radialGradient2970)"/><path id="path3076" d="m288.9 564.46c0 55.231-10.854 100.01-24.244 100.01-13.389 0-24.244-44.774-24.244-100.01 0-55.231 10.854-100.01 24.244-100.01 13.389 0 24.244 44.774 24.244 100.01z" transform="matrix(1.1389 0 0 1.1389 -31.371 -78.144)" style="fill-rule:evenodd;fill:url(#radialGradient2972)"/></g></g><path id="path3226" d="m457.14 360.93c0 47.339-76.751 85.714-171.43 85.714-94.677 0-171.43-38.376-171.43-85.714 0-47.339 76.751-85.714 171.43-85.714 94.677 0 171.43 38.376 171.43 85.714z" transform="matrix(.95725 0 0 .75357 142.84 101.02)" style="fill-rule:evenodd;fill:url(#radialGradient3234)"/><path id="path3236" d="m473.48 433.26 17.143 22.857 31.429-2.8571-14.286-25.714-34.286 5.7143z" style="fill-rule:evenodd;fill:#fff"/><path id="path3260" d="m507.1 635.17c0 68.621-47.94 124.25-107.08 124.25-59.137 0-107.08-55.628-107.08-124.25 0-68.621 47.94-124.25 107.08-124.25 59.137 0 107.08 55.628 107.08 124.25z" transform="matrix(.84615 .17411 -.22310 1.1777 66.857 -211.23)" style="fill-rule:evenodd;fill:gray"/><path id="path3264" d="m507.1 635.17c0 68.621-47.94 124.25-107.08 124.25-59.137 0-107.08-55.628-107.08-124.25 0-68.621 47.94-124.25 107.08-124.25 59.137 0 107.08 55.628 107.08 124.25z" transform="matrix(.84615 .17411 -.22310 1.1777 66.857 -211.23)" style="fill-rule:evenodd;fill:url(#linearGradient3272)"/><path id="path3262" d="m507.1 635.17c0 68.621-47.94 124.25-107.08 124.25-59.137 0-107.08-55.628-107.08-124.25 0-68.621 47.94-124.25 107.08-124.25 59.137 0 107.08 55.628 107.08 124.25z" transform="matrix(.80958 .16659 -.21345 1.1268 53.18 -181.28)" style="fill-rule:evenodd;fill:#ccc"/><path id="path3282" d="m507.1 635.17c0 68.621-47.94 124.25-107.08 124.25-59.137 0-107.08-55.628-107.08-124.25 0-68.621 47.94-124.25 107.08-124.25 59.137 0 107.08 55.628 107.08 124.25z" transform="matrix(.84615 .17411 -.22310 1.1777 66.857 -211.23)" style="fill-rule:evenodd;fill:url(#radialGradient3286)"/><path id="path3280" d="m507.1 635.17c0 68.621-47.94 124.25-107.08 124.25-59.137 0-107.08-55.628-107.08-124.25 0-68.621 47.94-124.25 107.08-124.25 59.137 0 107.08 55.628 107.08 124.25z" transform="matrix(.80958 .16659 -.21345 1.1268 53.18 -181.28)" style="fill-rule:evenodd;fill:#ccc"/><path id="path3288" d="m507.1 635.17c0 68.621-47.94 124.25-107.08 124.25-59.137 0-107.08-55.628-107.08-124.25 0-68.621 47.94-124.25 107.08-124.25 59.137 0 107.08 55.628 107.08 124.25z" transform="matrix(.80958 .16659 -.21345 1.1268 53.18 -181.28)" style="fill-rule:evenodd;fill:url(#linearGradient3296)"/><path id="path3298" d="m507.1 635.17c0 68.621-47.94 124.25-107.08 124.25-59.137 0-107.08-55.628-107.08-124.25 0-68.621 47.94-124.25 107.08-124.25 59.137 0 107.08 55.628 107.08 124.25z" transform="matrix(.80958 .16659 -.21345 1.1268 53.18 -181.28)" style="fill-rule:evenodd;fill:url(#linearGradient3300)"/><path id="path3302" d="m507.1 635.17c0 68.621-47.94 124.25-107.08 124.25-59.137 0-107.08-55.628-107.08-124.25 0-68.621 47.94-124.25 107.08-124.25 59.137 0 107.08 55.628 107.08 124.25z" transform="matrix(.80958 .16659 -.21345 1.1268 53.18 -181.28)" style="fill-rule:evenodd;fill:url(#radialGradient3304)"/><path id="path3314" d="m507.1 635.17c0 68.621-47.94 124.25-107.08 124.25-59.137 0-107.08-55.628-107.08-124.25 0-68.621 47.94-124.25 107.08-124.25 59.137 0 107.08 55.628 107.08 124.25z" transform="matrix(.80958 .16659 -.21345 1.1268 53.18 -181.28)" style="stroke-linejoin:round;stroke:url(#linearGradient3322);stroke-width:10;fill:none"/><path id="path3386" d="m507.1 635.17c0 68.621-47.94 124.25-107.08 124.25-59.137 0-107.08-55.628-107.08-124.25 0-68.621 47.94-124.25 107.08-124.25 59.137 0 107.08 55.628 107.08 124.25z" transform="matrix(.69359 .14272 -.18287 .96531 72.074 -71.216)" style="stroke-linejoin:round;fill-rule:evenodd;stroke:url(#radialGradient3396);stroke-width:10;fill:url(#linearGradient3404)"/><path id="path3492" d="m167 627.93 11.429-0.71428 5-15s-2.1429 2.1428 0-6.4286 5.7143-7.8571 6.4286-13.571c0.71429-5.7143-1.4286-5.7143 0.71429-10s3.5714-7.8571 3.5714-17.143c0-9.2857 5.7143-15.714 5.7143-15.714l2.14-8.57 6.43-12.86-12.86-1.42-3.57 15.71v10.714s-0.71429 10-2.8571 15c-2.1429 5-6.4286 15-6.4286 18.571 0 3.5714 2.1428 7.1429-0.71429 11.429-2.8571 4.2857-6.4286 13.571-6.4286 13.571l-5 7.1429-3.57 9.29z" transform="matrix(1.1183 0 0 1.1183 24.142 -48.056)" style="fill-rule:evenodd;filter:url(#filter3534);stroke:#000;stroke-width:1px;fill:#000"/><path id="path3408" d="m171.73 706.89v-18.183s107.08-149.5 111.12-181.83c4.0406-32.325 4.0406-34.345 4.0406-34.345l6.0609-2.0203-16.162-2.0203s-16.162-14.142-32.325-6.0609c-16.162 8.0812-52.528 26.264-60.609 54.548-8.0812 28.284-16.162 70.711-16.162 90.914s-8.0812 40.406-8.0812 40.406 2.0203 56.569 12.122 58.589z" style="fill-rule:evenodd;fill:url(#linearGradient3416)"/><path id="path3436" d="m264.66 721.03c0 7.8105-24.422 14.142-54.548 14.142s-54.548-6.3316-54.548-14.142c0-7.8105 24.422-14.142 54.548-14.142s54.548 6.3316 54.548 14.142z" transform="matrix(1.4286 0 0 1.4286 -57.723 -280.73)" style="fill-rule:evenodd;fill:url(#radialGradient3444)"/><path id="path3490" d="m247 555.25 7.1888-15.176h-13.579l-3.9938 16.774 10.384-1.5975z" style="fill-rule:evenodd;fill:#b3b3b3"/><path id="path3488" d="m235.81 548.06 9.5851 6.3901-9.5851 2.3963-11.981-9.5851 11.981 0.79876z" style="fill-rule:evenodd;stroke:#000;stroke-width:1.1183px;fill:#000"/><path id="path3446" d="m223.83 547.26s-5.5913 0.79877-8.7863 10.384c-3.195 9.5851-1.5975 30.353-6.3901 37.542-4.7925 7.1888-5.5913 6.3901-7.9876 15.975-2.3963 9.5851-7.1888 11.981 0.79876 16.774 7.9876 4.7925 7.9876 7.9876 7.9876 7.9876v13.579l11.981 1.5975 3.9938-15.176s-3.9938-6.3901-8.7863-11.183c-4.7926-4.7926-4.7926-7.1888-3.195-10.384 1.5975-3.195 6.3901-14.378 10.384-22.365 3.9938-7.9876 3.9938-11.183 3.9938-19.17 0-7.9876 0.79875-15.176 4.7925-17.573 3.9938-2.3963 5.5913-7.9876 5.5913-7.9876h-14.378z" style="fill-rule:evenodd;fill:#434343"/><path id="path3448" d="m223.83 547.26s-5.5913 0.79877-8.7863 10.384c-3.195 9.5851-1.5975 30.353-6.3901 37.542-4.7925 7.1888-5.5913 6.3901-7.9876 15.975-2.3963 9.5851-7.1888 11.981 0.79876 16.774 7.9876 4.7925 7.9876 7.9876 7.9876 7.9876v13.579l11.981 1.5975 3.9938-15.176s-3.9938-6.3901-8.7863-11.183c-4.7926-4.7926-4.7926-7.1888-3.195-10.384 1.5975-3.195 6.3901-14.378 10.384-22.365 3.9938-7.9876 3.9938-11.183 3.9938-19.17 0-7.9876 0.79875-15.176 4.7925-17.573 3.9938-2.3963 5.5913-7.9876 5.5913-7.9876h-14.378z" style="fill-rule:evenodd;fill:url(#radialGradient3456)"/><path id="path3464" d="m223.83 547.26s-5.5913 0.79877-8.7863 10.384c-3.195 9.5851-1.5975 30.353-6.3901 37.542-4.7925 7.1888-5.5913 6.3901-7.9876 15.975-2.3963 9.5851-7.1888 11.981 0.79876 16.774 7.9876 4.7925 7.9876 7.9876 7.9876 7.9876v13.579l11.981 1.5975 3.9938-15.176s-3.9938-6.3901-8.7863-11.183c-4.7926-4.7926-4.7926-7.1888-3.195-10.384 1.5975-3.195 6.3901-14.378 10.384-22.365 3.9938-7.9876 3.9938-11.183 3.9938-19.17 0-7.9876 0.79875-15.176 4.7925-17.573 3.9938-2.3963 5.5913-7.9876 5.5913-7.9876h-14.378z" style="fill-rule:evenodd;fill:url(#radialGradient3466)"/><path id="path3468" d="m223.83 547.26s-5.5913 0.79877-8.7863 10.384c-3.195 9.5851-1.5975 30.353-6.3901 37.542-4.7925 7.1888-5.5913 6.3901-7.9876 15.975-2.3963 9.5851-7.1888 11.981 0.79876 16.774 7.9876 4.7925 7.9876 7.9876 7.9876 7.9876v13.579l11.981 1.5975 3.9938-15.176s-3.9938-6.3901-8.7863-11.183c-4.7926-4.7926-4.7926-7.1888-3.195-10.384 1.5975-3.195 6.3901-14.378 10.384-22.365 3.9938-7.9876 3.9938-11.183 3.9938-19.17 0-7.9876 0.79875-15.176 4.7925-17.573 3.9938-2.3963 5.5913-7.9876 5.5913-7.9876h-14.378z" style="opacity:.78453;fill-rule:evenodd;fill:url(#linearGradient3476)"/><path id="path3478" d="m223.83 547.26s-5.5913 0.79877-8.7863 10.384c-3.195 9.5851-1.5975 30.353-6.3901 37.542-4.7925 7.1888-5.5913 6.3901-7.9876 15.975-2.3963 9.5851-7.1888 11.981 0.79876 16.774 7.9876 4.7925 7.9876 7.9876 7.9876 7.9876v13.579l11.981 1.5975 3.9938-15.176s-3.9938-6.3901-8.7863-11.183c-4.7926-4.7926-4.7926-7.1888-3.195-10.384 1.5975-3.195 6.3901-14.378 10.384-22.365 3.9938-7.9876 3.9938-11.183 3.9938-19.17 0-7.9876 0.79875-15.176 4.7925-17.573 3.9938-2.3963 5.5913-7.9876 5.5913-7.9876h-14.378z" style="opacity:.78453;fill-rule:evenodd;fill:url(#linearGradient3480)"/></g><metadata/></svg>